<svg xmlns="http://www.w3.org/2000/svg" xmlns:xlink="http://www.w3.org/1999/xlink" width="30mm" height="29.1042mm" version="1.2" baseProfile="tiny">


<g fill="none" stroke="black" stroke-width="1" fill-rule="evenodd" stroke-linecap="square" stroke-linejoin="bevel">

<g fill="#000000" fill-opacity="1" stroke="#000000" stroke-opacity="1" stroke-width="1" stroke-linecap="square" stroke-linejoin="miter" stroke-miterlimit="2" transform="matrix(1,0,0,1,0,0)">
</g>

<g fill="#000000" fill-opacity="1" stroke="#000000" stroke-opacity="1" stroke-width="1" stroke-linecap="square" stroke-linejoin="miter" stroke-miterlimit="2" transform="matrix(1,0,0,1,0,0)">
</g>

<g fill="#000000" fill-opacity="1" stroke="#000000" stroke-opacity="1" stroke-width="1" stroke-linecap="square" stroke-linejoin="miter" stroke-miterlimit="2" transform="matrix(1,0,0,1,0,0)">
</g>

<g fill="#000000" fill-opacity="1" stroke="#000000" stroke-opacity="1" stroke-width="1" stroke-linecap="square" stroke-linejoin="miter" stroke-miterlimit="2" transform="matrix(1,0,0,1,0,0)">
</g>

<g fill="#000000" fill-opacity="1" stroke="#000000" stroke-opacity="1" stroke-width="1" stroke-linecap="square" stroke-linejoin="miter" stroke-miterlimit="2" transform="matrix(1,0,0,1,8,8)">
</g>

<g fill="#000000" fill-opacity="1" stroke="#000000" stroke-opacity="1" stroke-width="1" stroke-linecap="square" stroke-linejoin="miter" stroke-miterlimit="2" transform="matrix(1.31577,0,0,1.31577,1188.3,-656.818)">
</g>

<g fill="#111111" fill-opacity="1" stroke="none" transform="matrix(1.31577,0,0,1.31577,1188.3,-656.818)">
<path vector-effect="none" fill-rule="nonzero" d="M-870.612,528.118 C-870.612,530.725 -872.726,532.839 -875.333,532.839 C-877.94,532.839 -880.054,530.725 -880.054,528.118 C-880.054,525.511 -877.94,523.397 -875.333,523.397 C-872.726,523.397 -870.612,525.511 -870.612,528.118 "/>
</g>

<g fill="#000000" fill-opacity="1" stroke="#000000" stroke-opacity="1" stroke-width="1" stroke-linecap="square" stroke-linejoin="miter" stroke-miterlimit="2" transform="matrix(1.31577,0,0,1.31577,1188.3,-656.818)">
</g>

<g fill="#111111" fill-opacity="1" stroke="none" transform="matrix(1.31577,0,0,1.31577,1188.3,-656.818)">
<path vector-effect="none" fill-rule="nonzero" d="M-841.446,528.118 C-841.446,530.725 -843.56,532.839 -846.167,532.839 C-848.774,532.839 -850.888,530.725 -850.888,528.118 C-850.888,525.511 -848.774,523.397 -846.167,523.397 C-843.56,523.397 -841.446,525.511 -841.446,528.118 "/>
</g>

<g fill="#000000" fill-opacity="1" stroke="#000000" stroke-opacity="1" stroke-width="1" stroke-linecap="square" stroke-linejoin="miter" stroke-miterlimit="2" transform="matrix(1.31577,0,0,1.31577,1188.3,-656.818)">
</g>

<g fill="#111111" fill-opacity="1" stroke="none" transform="matrix(1.31577,0,0,1.31577,1188.3,-656.818)">
<path vector-effect="none" fill-rule="nonzero" d="M-882.327,574.919 C-874.992,576.122 -867.556,576.731 -860.206,576.731 C-859.793,576.731 -859.379,576.729 -858.967,576.725 C-851.214,576.653 -843.356,575.898 -835.61,574.483 C-835.595,574.481 -835.581,574.478 -835.566,574.475 C-829.858,573.357 -824.266,567.869 -823.091,562.198 C-821.728,555.168 -821.037,548.036 -821.037,541 C-821.037,533.964 -821.728,526.833 -823.1,519.758 C-824.266,514.131 -829.857,508.643 -835.61,507.517 C-843.356,506.101 -851.214,505.347 -858.967,505.275 C-866.726,505.2 -874.579,505.81 -882.367,507.088 C-888.108,508.099 -893.747,513.597 -894.945,519.388 C-896.334,526.555 -897.038,533.827 -897.038,541 C-897.038,548.173 -896.334,555.445 -894.936,562.655 C-893.747,568.403 -888.109,573.902 -882.327,574.919 M-888.082,520.763 C-887.479,517.85 -884.048,514.491 -881.195,513.989 C-874.233,512.847 -867.179,512.269 -860.208,512.269 C-859.816,512.269 -859.424,512.271 -859.034,512.275 C-851.68,512.343 -844.223,513.06 -836.913,514.395 C-833.993,514.967 -830.546,518.327 -829.965,521.135 C-828.687,527.727 -828.039,534.411 -828.039,541.001 C-828.039,547.591 -828.687,554.274 -829.956,560.823 C-830.545,563.668 -833.977,567.02 -836.894,567.603 C-844.24,568.944 -851.688,569.658 -859.034,569.727 C-866.384,569.8 -873.843,569.219 -881.156,568.02 C-884.049,567.511 -887.48,564.152 -888.074,561.282 C-889.378,554.553 -890.039,547.729 -890.039,541.002 C-890.039,534.275 -889.377,527.449 -888.082,520.763 "/>
</g>

<g fill="#000000" fill-opacity="1" stroke="#000000" stroke-opacity="1" stroke-width="1" stroke-linecap="square" stroke-linejoin="miter" stroke-miterlimit="2" transform="matrix(1.31577,0,0,1.31577,1188.3,-656.818)">
</g>

<g fill="#111111" fill-opacity="1" stroke="none" transform="matrix(1.31577,0,0,1.31577,1188.3,-656.818)">
<path vector-effect="none" fill-rule="nonzero" d="M-861.569,563.364 C-861.035,563.355 -860.465,563.355 -859.931,563.364 C-859.664,563.368 -859.389,563.373 -859.108,563.373 C-857.254,563.373 -855.132,563.183 -853.435,561.512 C-851.554,559.661 -851.337,557.043 -851.337,555.236 C-851.337,548.013 -855.472,542.356 -860.751,542.356 C-866.03,542.356 -870.165,548.014 -870.165,555.236 C-870.165,557.044 -869.948,559.661 -868.067,561.512 C-866.111,563.437 -863.589,563.398 -861.569,563.364 "/>
</g>

<g fill="#000000" fill-opacity="1" stroke="#000000" stroke-opacity="1" stroke-width="1" stroke-linecap="square" stroke-linejoin="miter" stroke-miterlimit="2" transform="matrix(1.31577,0,0,1.31577,1188.3,-656.818)">
</g>

<g fill="#000000" fill-opacity="1" stroke="#000000" stroke-opacity="1" stroke-width="1" stroke-linecap="square" stroke-linejoin="miter" stroke-miterlimit="2" transform="matrix(1,0,0,1,8,8)">
</g>

<g fill="#000000" fill-opacity="1" stroke="#000000" stroke-opacity="1" stroke-width="1" stroke-linecap="square" stroke-linejoin="miter" stroke-miterlimit="2" transform="matrix(1,0,0,1,8,8)">
</g>

<g fill="#000000" fill-opacity="1" stroke="#000000" stroke-opacity="1" stroke-width="1" stroke-linecap="square" stroke-linejoin="miter" stroke-miterlimit="2" transform="matrix(1,0,0,1,0,0)">
</g>

<g fill="#000000" fill-opacity="1" stroke="#000000" stroke-opacity="1" stroke-width="1" stroke-linecap="square" stroke-linejoin="miter" stroke-miterlimit="2" transform="matrix(1,0,0,1,0,0)">
</g>

<g fill="#000000" fill-opacity="1" stroke="#000000" stroke-opacity="1" stroke-width="1" stroke-linecap="square" stroke-linejoin="miter" stroke-miterlimit="2" transform="matrix(1,0,0,1,0,0)">
</g>

<g fill="#000000" fill-opacity="1" stroke="#000000" stroke-opacity="1" stroke-width="1" stroke-linecap="square" stroke-linejoin="miter" stroke-miterlimit="2" transform="matrix(1,0,0,1,0,0)">
</g>

<g fill="#000000" fill-opacity="1" stroke="#000000" stroke-opacity="1" stroke-width="1" stroke-linecap="square" stroke-linejoin="miter" stroke-miterlimit="2" transform="matrix(1,0,0,1,8,8)">
</g>

<g fill="#000000" fill-opacity="1" stroke="#000000" stroke-opacity="1" stroke-width="1" stroke-linecap="square" stroke-linejoin="miter" stroke-miterlimit="2" transform="matrix(1,0,0,1,8,8)">
</g>

<g fill="#000000" fill-opacity="1" stroke="#000000" stroke-opacity="1" stroke-width="1" stroke-linecap="square" stroke-linejoin="miter" stroke-miterlimit="2" transform="matrix(1,0,0,1,8,8)">
</g>

<g fill="#000000" fill-opacity="1" stroke="#000000" stroke-opacity="1" stroke-width="1" stroke-linecap="square" stroke-linejoin="miter" stroke-miterlimit="2" transform="matrix(1,0,0,1,0,0)">
</g>

<g fill="#000000" fill-opacity="1" stroke="#000000" stroke-opacity="1" stroke-width="1" stroke-linecap="square" stroke-linejoin="miter" stroke-miterlimit="2" transform="matrix(1,0,0,1,0,0)">
</g>

<g fill="#000000" fill-opacity="1" stroke="#000000" stroke-opacity="1" stroke-width="1" stroke-linecap="square" stroke-linejoin="miter" stroke-miterlimit="2" transform="matrix(1,0,0,1,0,0)">
</g>

<g fill="#000000" fill-opacity="1" stroke="#000000" stroke-opacity="1" stroke-width="1" stroke-linecap="square" stroke-linejoin="miter" stroke-miterlimit="2" transform="matrix(1,0,0,1,0,0)">
</g>

<g fill="#000000" fill-opacity="1" stroke="#000000" stroke-opacity="1" stroke-width="1" stroke-linecap="square" stroke-linejoin="miter" stroke-miterlimit="2" transform="matrix(1,0,0,1,0,0)">
</g>

<g fill="#000000" fill-opacity="1" stroke="#000000" stroke-opacity="1" stroke-width="1" stroke-linecap="square" stroke-linejoin="miter" stroke-miterlimit="2" transform="matrix(1,0,0,1,0,0)">
</g>
</g>
</svg>
